<svg width="1365" height="1365" viewBox="0 0 1365 1365" fill="none" xmlns="http://www.w3.org/2000/svg">
<path fill-rule="evenodd" clip-rule="evenodd" d="M634.906 1.35903L634.905 1.35913C630.664 1.76396 623.732 2.42566 617.34 2.93295C423.625 20.3979 242.176 124.921 127.254 285.572C63.2605 374.897 22.3311 476.22 6.86597 583.543C1.39983 621.006 0.733232 632.071 0.733232 682.866C0.733232 733.661 1.39983 744.727 6.86597 782.19C43.929 1038.3 226.178 1253.48 473.354 1333.2C517.616 1347.47 564.278 1357.2 617.34 1363.07C638.004 1365.33 727.329 1365.33 747.994 1363.07C839.585 1352.93 917.177 1330.27 993.703 1291.21C1005.06 1285.4 1007.55 1283.71 1006.24 1282.4C1021.63 1274.09 1036.67 1265.19 1051.31 1255.75L1052.36 1257.34L1057.83 1253.74C1106.23 1222.28 1157.42 1177.48 1197.95 1130.82C1284.21 1031.77 1339.8 910.978 1358.47 782.19C1363.93 744.727 1364.6 733.661 1364.6 682.866C1364.6 632.071 1363.93 621.006 1358.47 583.543C1321.4 327.435 1139.16 112.256 891.98 32.5301C848.384 18.3981 801.988 8.66572 749.993 2.79963C737.195 1.46643 649.07 -9.76324e-05 638.004 1.06646C637.304 1.13017 636.237 1.23194 634.906 1.35903ZM1051.31 1255.75C1239.44 1134.54 1364 923.307 1364 683C1364 306.894 1058.88 1.99993 682.5 1.99993C306.118 1.99993 1 306.894 1 683C1 1059.11 306.118 1364 682.5 1364C799.673 1364 909.939 1334.45 1006.24 1282.4C1006.22 1282.38 1006.19 1282.35 1006.16 1282.32C1006.14 1282.31 1006.12 1282.29 1006.1 1282.27C1005.04 1281.47 955.04 1214.41 895.046 1133.36L785.99 986.037L649.337 783.79C574.144 672.601 512.283 581.676 511.75 581.676C511.217 581.543 510.683 671.401 510.417 781.124C510.017 973.238 509.884 980.971 507.484 985.504C504.017 992.036 501.351 994.703 495.752 997.636C491.485 999.769 487.752 1000.17 467.621 1000.17H444.557L438.424 996.303C434.424 993.769 431.491 990.436 429.491 986.57L426.692 980.571L426.958 713.263L427.358 445.823L431.491 440.623C433.624 437.824 438.157 434.224 441.357 432.491C446.823 429.825 448.956 429.558 472.021 429.558C499.218 429.558 503.751 430.624 510.817 438.357C512.817 440.49 586.809 551.946 675.334 686.2C763.859 820.453 884.914 1003.77 944.374 1093.76L1051.31 1255.75ZM917.177 413.559C923.577 416.759 928.776 422.892 930.642 429.291C931.709 432.758 931.976 506.884 931.709 673.934L931.309 913.644L889.047 848.85L846.651 784.057V609.807C846.651 497.151 847.184 433.824 847.984 430.758C850.117 423.292 854.783 417.426 861.183 413.959C866.649 411.16 868.648 410.893 889.58 410.893C909.311 410.893 912.778 411.16 917.177 413.559ZM1043.7 1262.94C1039.57 1265.21 1041.03 1263.21 1045.7 1260.28C1047.96 1258.81 1050.23 1257.48 1050.63 1257.48C1051.43 1257.61 1046.63 1261.21 1043.7 1262.94ZM1037.03 1266.81C1034.1 1268.28 1034.1 1268.14 1036.5 1266.28C1039.3 1264.01 1039.97 1263.74 1039.97 1264.81C1039.97 1265.08 1038.63 1266.01 1037.03 1266.81ZM1030.37 1270.81C1027.43 1272.28 1027.43 1272.14 1029.83 1270.28C1032.63 1268.01 1033.3 1267.74 1033.3 1268.81C1033.3 1269.08 1031.97 1270.01 1030.37 1270.81ZM1023.7 1274.81C1020.77 1276.28 1020.77 1276.14 1023.17 1274.28C1025.97 1272.01 1026.63 1271.74 1026.63 1272.81C1026.63 1273.08 1025.3 1274.01 1023.7 1274.81ZM1013.3 1280.81C1008.23 1283.34 1007.97 1282.27 1013.03 1279.61L1013.74 1279.22C1017.18 1277.33 1017.3 1277.26 1017.3 1278.14C1017.3 1278.41 1015.57 1279.61 1013.3 1280.81Z" fill="black"/>
</svg>
