<svg width="1366" height="1366" viewBox="0 0 1366 1366" fill="none" xmlns="http://www.w3.org/2000/svg">
<rect width="1365.33" height="1365.33" fill="white"/>
<path d="M638.05 1.56449L638.052 1.56423C643.549 1.03441 668.308 1.13289 693.341 1.53314C718.365 1.93326 743.566 2.63318 749.94 3.29685C801.905 9.15971 848.266 18.8857 891.825 33.0058L891.826 33.006C1138.82 112.673 1320.94 327.696 1357.97 583.615C1363.43 621.048 1364.1 632.088 1364.1 682.867C1364.1 733.645 1363.43 744.686 1357.97 782.118C1339.32 910.81 1283.77 1031.51 1197.57 1130.49L1197.93 1130.8L1197.57 1130.5C1157.07 1177.12 1105.91 1221.89 1057.56 1253.33L1057.56 1253.33L1052.51 1256.65L944.792 1093.48L944.374 1093.76L944.792 1093.48C885.331 1003.49 764.276 820.178 675.751 685.924C631.489 618.797 590.859 557.37 561.045 512.457C546.138 490 533.935 471.672 525.333 458.825C521.032 452.401 517.631 447.347 515.243 443.832C514.049 442.074 513.107 440.7 512.432 439.731C512.094 439.247 511.822 438.862 511.618 438.581C511.426 438.317 511.275 438.116 511.186 438.02C509.407 436.073 507.765 434.521 505.869 433.3C503.969 432.076 501.834 431.198 499.079 430.57C493.597 429.322 485.604 429.058 472.021 429.058C460.498 429.058 454.17 429.124 450.041 429.527C445.871 429.934 443.914 430.688 441.138 432.042L441.128 432.046L441.119 432.051C437.874 433.809 433.284 437.448 431.097 440.315C431.096 440.317 431.095 440.319 431.093 440.321L426.967 445.512L426.858 445.648L426.858 445.822L426.458 713.263L426.192 980.57L426.192 980.682L426.239 980.782L429.038 986.782L429.043 986.791L429.047 986.8C431.086 990.742 434.079 994.143 438.156 996.725L438.157 996.726L444.29 1000.59L444.412 1000.67H444.557H467.621C487.706 1000.67 491.579 1000.28 495.975 998.083L495.984 998.079C498.811 996.598 500.927 995.169 502.776 993.268C504.623 991.37 506.182 989.024 507.925 985.738L507.926 985.738C508.573 984.514 509.039 983.1 509.397 978.714C509.754 974.331 510.009 966.92 510.2 953.664C510.583 927.146 510.717 877.18 510.917 781.125C511.05 726.264 511.25 676.37 511.483 640.207C511.6 622.126 511.725 607.479 511.854 597.361C511.919 592.301 511.984 588.376 512.05 585.72C512.079 584.567 512.108 583.656 512.136 582.997C512.141 583.004 512.147 583.01 512.152 583.018C512.65 583.707 513.377 584.736 514.321 586.087C516.209 588.789 518.962 592.773 522.487 597.904C529.535 608.165 539.667 623.004 552.133 641.319C577.063 677.948 611.326 728.476 648.922 784.07L785.576 986.317L785.582 986.326L785.588 986.335L894.644 1133.65C924.641 1174.18 952.139 1211.21 972.271 1238.21C982.337 1251.71 990.561 1262.7 996.337 1270.37C999.224 1274.2 1001.5 1277.2 1003.09 1279.28C1003.42 1279.7 1003.71 1280.09 1003.98 1280.44C1004.37 1280.93 1004.69 1281.34 1004.95 1281.67C1005.17 1281.95 1005.34 1282.17 1005.48 1282.33C1005.54 1282.41 1005.6 1282.47 1005.65 1282.52C1005.66 1282.55 1005.69 1282.57 1005.72 1282.6C1005.74 1282.62 1005.76 1282.64 1005.79 1282.66C1005.95 1282.8 1006.01 1282.9 1006.04 1282.97C1006.06 1283.02 1006.07 1283.09 1006.02 1283.21C1005.97 1283.33 1005.86 1283.51 1005.62 1283.75C1005.39 1283.99 1005.06 1284.27 1004.61 1284.59C1002.81 1285.88 999.352 1287.76 993.476 1290.76C917.008 1329.8 839.474 1352.44 747.939 1362.57C737.639 1363.7 710.172 1364.27 682.667 1364.27C655.162 1364.27 627.694 1363.7 617.395 1362.57C564.362 1356.71 517.734 1346.98 473.507 1332.73C226.512 1253.06 44.3964 1038.04 7.3608 782.119L7.36071 782.118C1.89904 744.686 1.23322 733.645 1.23322 682.867C1.23322 632.088 1.89904 621.048 7.36071 583.615L7.36084 583.614C22.8144 476.372 63.7129 375.124 127.661 285.863L127.661 285.863C242.499 125.329 423.816 20.8837 617.382 3.43126C623.778 2.92362 630.717 2.2612 634.957 1.8565C636.287 1.72956 637.351 1.62798 638.05 1.56449ZM930.89 913.917L931.806 915.322L931.809 913.645L932.209 673.935C932.342 590.41 932.342 530.114 932.176 490.267C932.092 470.343 931.967 455.529 931.796 445.479C931.711 440.455 931.614 436.617 931.505 433.927C931.451 432.582 931.393 431.519 931.332 430.736C931.272 429.977 931.207 429.426 931.121 429.146C929.212 422.61 923.92 416.375 917.408 413.116C915.144 411.882 913.11 411.2 909.175 410.829C905.263 410.459 899.438 410.393 889.58 410.393C879.125 410.393 873.36 410.459 869.527 410.879C865.652 411.304 863.726 412.095 860.955 413.514L860.944 413.52C854.421 417.053 849.671 423.032 847.503 430.621L847.5 430.632C847.436 430.876 847.385 431.352 847.338 432C847.29 432.668 847.243 433.566 847.197 434.691C847.106 436.941 847.019 440.11 846.938 444.176C846.776 452.307 846.634 464.033 846.517 479.183C846.284 509.482 846.151 553.479 846.151 609.807V784.057V784.206L846.232 784.331L888.628 849.124L888.628 849.124L930.89 913.917Z" fill="black" stroke="black"/>
</svg>
